<svg width="123" height="24" viewBox="0 0 123 24" fill="none" xmlns="http://www.w3.org/2000/svg"><path d="M11.28 18.195c-3.423 0-5.571-2.234-5.571-5.828s2.156-5.836 5.57-5.836 5.563 2.242 5.563 5.836-2.149 5.828-5.563 5.828m0-2.328c1.6 0 2.648-1.36 2.648-3.5 0-2.148-1.047-3.508-2.649-3.508-1.601 0-2.648 1.36-2.648 3.508 0 2.14 1.039 3.5 2.648 3.5m8.483 5.188c-.812 0-1.39-.47-1.39-1.438v-8.883c0-.96.57-1.421 1.382-1.421.805 0 1.375.46 1.375 1.43v.265h.055c.43-1.024 1.352-1.64 2.578-1.64 2.149 0 3.399 1.6 3.399 4.382 0 2.773-1.243 4.375-3.36 4.375-1.25 0-2.187-.594-2.601-1.578h-.055v3.07c0 .969-.578 1.438-1.383 1.438m2.969-5.094c.984 0 1.601-.86 1.601-2.211 0-1.352-.625-2.219-1.601-2.219-.969 0-1.594.875-1.602 2.219.008 1.352.625 2.21 1.602 2.21m9.921 2.242c-2.726 0-4.343-1.648-4.343-4.414 0-2.758 1.64-4.5 4.234-4.5 2.531 0 4.195 1.672 4.195 3.969 0 .703-.398 1.094-1.117 1.094h-4.625v.156c0 1.031.68 1.734 1.68 1.734.758 0 1.281-.242 1.898-.867.29-.273.516-.367.86-.367.562 0 1.039.36 1.039.969 0 .21-.063.421-.188.625-.562 1-1.937 1.601-3.633 1.601m-1.617-5.43h3.094c-.047-.921-.664-1.515-1.531-1.515-.86 0-1.492.625-1.563 1.515m8.492 5.407c-.812 0-1.39-.47-1.39-1.438v-6.039c0-.875.492-1.39 1.343-1.39.852 0 1.407.515 1.407 1.398v.32h.054c.446-1.125 1.274-1.703 2.578-1.703 1.899 0 2.953 1.188 2.953 3.211v4.203c0 .969-.57 1.438-1.382 1.438-.813 0-1.383-.47-1.383-1.438v-3.61c0-.968-.461-1.546-1.367-1.546-.883 0-1.43.664-1.43 1.601v3.555c0 .969-.578 1.438-1.383 1.438m13.625 0c-.907 0-1.438-.547-1.438-1.492v-8.46c0-.954.531-1.5 1.438-1.5h3.39c2.813 0 4.328 1.39 4.328 3.718 0 1.328-.61 2.516-1.758 3.094l1.383 2.352c.25.414.305.648.305.984 0 .758-.594 1.305-1.43 1.305-.695 0-.992-.242-1.476-1.117l-1.672-3.008h-1.64v2.633c0 .945-.524 1.492-1.43 1.492m1.43-6.086h1.679c1.055 0 1.68-.617 1.68-1.594 0-.96-.664-1.61-1.688-1.61H54.58zm10.335 6.031c-1.586 0-2.86-1.047-2.86-2.586 0-1.594 1.227-2.484 3.43-2.617l1.992-.117v-.485c0-.68-.484-1.054-1.21-1.054-.594 0-.922.172-1.454.75-.32.32-.672.476-1.094.476-.664 0-1.132-.414-1.132-1.008 0-.195.023-.336.086-.5.359-1.054 1.78-1.695 3.734-1.695 2.273 0 3.781 1.164 3.781 2.875v4.625c0 .945-.57 1.39-1.36 1.39-.734 0-1.257-.382-1.335-1.195v-.195h-.055c-.46.86-1.5 1.336-2.523 1.336m.984-1.906c.844 0 1.578-.516 1.578-1.274v-.586l-1.547.102c-.726.055-1.14.39-1.14.89 0 .54.445.868 1.11.868m7.344-7.594c-.805 0-1.422-.586-1.422-1.352 0-.773.617-1.359 1.422-1.359s1.414.586 1.414 1.36c0 .765-.61 1.351-1.414 1.351m0 9.555c-.875 0-1.383-.524-1.383-1.438V10.75c0-.906.508-1.437 1.383-1.437.867 0 1.382.53 1.382 1.437v5.992c0 .914-.515 1.438-1.382 1.438m4.445 0c-.813 0-1.391-.47-1.391-1.438v-6.039c0-.875.492-1.39 1.344-1.39.851 0 1.406.515 1.406 1.398v.32h.055c.445-1.125 1.273-1.703 2.578-1.703 1.898 0 2.953 1.188 2.953 3.211v4.203c0 .969-.57 1.438-1.383 1.438-.812 0-1.383-.47-1.383-1.438v-3.61c0-.968-.46-1.546-1.367-1.546-.883 0-1.43.664-1.43 1.601v3.555c0 .969-.578 1.438-1.382 1.438m9.992 0c-.805 0-1.376-.461-1.376-1.422V7.984c0-.968.579-1.437 1.391-1.437.805 0 1.383.469 1.383 1.437V11h.055c.43-1.023 1.359-1.633 2.57-1.633 2.148 0 3.398 1.602 3.398 4.383 0 2.773-1.242 4.375-3.375 4.375-1.242 0-2.18-.602-2.609-1.586h-.055v.219c0 .96-.57 1.422-1.382 1.422m2.992-2.22c.976 0 1.593-.858 1.593-2.21s-.625-2.219-1.593-2.219c-.97 0-1.602.875-1.61 2.219.008 1.36.64 2.21 1.61 2.21m9.921 2.243c-2.68 0-4.351-1.625-4.351-4.46 0-2.782 1.71-4.454 4.351-4.454 2.657 0 4.352 1.664 4.352 4.453 0 2.844-1.672 4.461-4.352 4.461m0-2.031c.946 0 1.547-.867 1.547-2.422 0-1.531-.601-2.43-1.547-2.43-.937 0-1.539.899-1.539 2.43 0 1.555.586 2.422 1.539 2.422m8.703 2.008c-.969 0-1.477-.461-1.766-1.477l-1.531-5.32c-.109-.383-.164-.617-.164-.89 0-.688.563-1.18 1.336-1.18.688 0 1.156.437 1.305 1.187l1.054 5h.055l1.078-4.914c.164-.828.711-1.274 1.547-1.274.828 0 1.375.446 1.547 1.282l1.086 4.906h.055l1.054-5.023c.141-.727.602-1.165 1.289-1.165.758 0 1.297.485 1.297 1.165 0 .265-.054.5-.156.875l-1.531 5.336c-.297 1.03-.813 1.492-1.805 1.492-1.039 0-1.578-.453-1.812-1.5l-1.055-4.407h-.055l-1.047 4.43c-.226 1.031-.765 1.477-1.781 1.477" fill="#fff"/></svg>