<svg width="36" height="24" viewBox="0 0 36 24" fill="none" xmlns="http://www.w3.org/2000/svg"><path d="M4.664 18.203c-2.171 0-3.53-.703-3.93-1.68a1.4 1.4 0 0 1-.1-.468c0-.61.452-1.04 1.077-1.04.438 0 .805.18 1.203.57.47.517 1 .75 1.774.75.719 0 1.18-.273 1.18-.733 0-.375-.274-.579-1.047-.735l-1.485-.297C1.656 14.242.79 13.36.79 12.07c0-1.71 1.461-2.78 3.813-2.78 1.945 0 3.258.812 3.562 1.75q.07.198.07.398c0 .53-.335.921-1.054.921-.312 0-.71-.125-.945-.343-.422-.422-.844-.86-1.657-.86-.671 0-1.125.297-1.125.758 0 .367.258.602 1.07.766L6 12.969c1.828.36 2.617 1.054 2.617 2.328 0 1.781-1.585 2.906-3.953 2.906m6.528-.023c-.813 0-1.391-.47-1.391-1.438V7.953c0-.89.5-1.406 1.36-1.406.859 0 1.35.516 1.35 1.414v3.133h.056c.437-1.14 1.367-1.766 2.664-1.766 1.898 0 2.953 1.203 2.953 3.211v4.203c0 .969-.57 1.438-1.383 1.438s-1.383-.47-1.383-1.438v-3.601c0-.961-.476-1.555-1.39-1.555-.93 0-1.454.664-1.454 1.617v3.54c0 .968-.578 1.437-1.382 1.437m9.863-9.555c-.805 0-1.422-.586-1.422-1.352 0-.773.617-1.359 1.422-1.359s1.414.586 1.414 1.36c0 .765-.61 1.351-1.414 1.351m0 9.555c-.875 0-1.383-.524-1.383-1.438V10.75c0-.906.508-1.437 1.383-1.437.867 0 1.383.53 1.383 1.437v5.992c0 .914-.516 1.438-1.383 1.438m4.98 0c-.82 0-1.39-.461-1.39-1.43v-5.219h-.305c-.54 0-.977-.351-.977-.992 0-.633.438-.984.977-.984h.304v-.492c0-1.704.852-2.438 2.57-2.454 1.47 0 2.04.454 2.04 1.07 0 .36-.172.571-.516.665q-.187.058-.445.07c-.695.04-.953.281-.953.781v.36h.828c.547 0 .976.351.976.984 0 .64-.43.992-.976.992h-.75v5.219c0 .969-.57 1.43-1.383 1.43m4.91-2.461v-4.18h-.305c-.617 0-1.023-.406-1.023-1.023 0-.625.406-1.024 1.023-1.024h.305v-.68c0-.898.508-1.437 1.39-1.437.876 0 1.383.54 1.383 1.438v.68h.672c.617 0 1.024.405 1.024 1.023s-.407 1.023-1.024 1.023h-.672v3.57c0 .532.18.743.57.782l.173.023c.617.07.976.344.976.984 0 .805-.875 1.211-1.945 1.211h-.07c-1.641 0-2.477-.812-2.477-2.39" fill="#fff"/></svg>